<?xml version="1.0" encoding="utf-8" ?>
<svg xmlns="http://www.w3.org/2000/svg" xmlns:xlink="http://www.w3.org/1999/xlink" width="1024" height="1024">
	<path transform="scale(2 2)" d="M190.938 76.7499C201.741 76.3977 209.363 83.3131 217.91 89.0082L405.352 213.302C411.617 217.532 419.419 221.806 425.012 226.703C438.451 238.47 441.058 259.578 432.163 274.794C425.526 286.148 411.834 292.956 401.215 299.993L207.325 427.994C204.159 430.077 201.652 431.9 197.935 432.871C184.032 436.007 172.456 419.133 182.399 408.174C184.602 405.746 187.864 404.086 190.594 402.316L389.788 271.332C396.793 266.801 412.322 259.212 403.65 248.95C401.462 246.362 393.754 241.924 390.597 239.828L192.247 108.625C189.479 106.836 186.503 105.12 183.922 103.072C173.569 94.8538 178.279 79.9444 190.938 76.7499Z"/>
	<path fill="#65A50F" transform="scale(2 2)" d="M103.525 77.5913C114.746 76.4918 122.433 82.6032 131.33 88.1947L200.452 133.269C213.551 141.8 226.922 149.987 239.896 158.703C262.581 173.943 242.825 195.07 228.356 187.88C223.496 185.464 218.836 181.864 214.298 178.852L134.08 126.416C124.319 120.073 114.421 113.879 104.836 107.276L104.836 402.094C108.993 399.879 112.853 397.08 116.826 394.553L141.379 378.631C150.569 372.977 159.541 366.863 168.592 360.985L218.821 328.449C223.184 325.628 228.215 321.415 233.448 320.432C248.058 317.686 260.062 336.744 242.644 348.887C237.899 352.196 232.888 355.138 228.063 358.333L137 417.686C128.945 422.839 121.238 429.574 111.348 430.728C93.7696 432.78 76.8461 420.913 74.8845 402.864C74.3159 397.633 74.6594 392.142 74.6689 386.88L74.6608 124.638C74.6618 118.523 74.3084 112.165 74.8641 106.082C76.2693 90.7 88.201 79.1552 103.525 77.5913Z"/>
</svg>
