<svg id="ej0MVNHB9he1" xmlns="http://www.w3.org/2000/svg" xmlns:xlink="http://www.w3.org/1999/xlink" viewBox="0 0 1024 1024" shape-rendering="geometricPrecision" text-rendering="geometricPrecision" project-id="c87c7306f9d44242978392d48ad3a9fc" export-id="9e7dbe8fbd5f4001899e5abee2ce176e" cached="false"><path d="M190.938,76.7499c10.803-.3522,18.425,6.5632,26.972,12.2583L405.352,213.302c6.265,4.23,14.067,8.504,19.66,13.401c13.439,11.767,16.046,32.875,7.151,48.091-6.637,11.354-20.329,18.162-30.948,25.199L207.325,427.994c-3.166,2.083-5.673,3.906-9.39,4.877-13.903,3.136-25.479-13.738-15.536-24.697c2.203-2.428,5.465-4.088,8.195-5.858L389.788,271.332c7.005-4.531,22.534-12.12,13.862-22.382-2.188-2.588-9.896-7.026-13.053-9.122L192.247,108.625c-2.768-1.789-5.744-3.505-8.325-5.553-10.353-8.2182-5.643-23.1276,7.016-26.3221Z" transform="matrix(2 0 0 2 0 0)" fill="#fff"/><path d="M103.525,77.5913c11.221-1.0995,18.908,5.0119,27.805,10.6034l69.122,45.0743c13.099,8.531,26.47,16.718,39.444,25.434c22.685,15.24,2.929,36.367-11.54,29.177-4.86-2.416-9.52-6.016-14.058-9.028L134.08,126.416c-9.761-6.343-19.659-12.537-29.244-19.14v294.818c4.157-2.215,8.017-5.014,11.99-7.541l24.553-15.922c9.19-5.654,18.162-11.768,27.213-17.646l50.229-32.536c4.363-2.821,9.394-7.034,14.627-8.017c14.61-2.746,26.614,16.312,9.196,28.455-4.745,3.309-9.756,6.251-14.581,9.446L137,417.686c-8.055,5.153-15.762,11.888-25.652,13.042-17.5784,2.052-34.5019-9.815-36.4635-27.864-.5686-5.231-.2251-10.722-.2156-15.984l-.0081-262.242c.001-6.115-.3524-12.473.2033-18.556C76.2693,90.7,88.201,79.1552,103.525,77.5913Z" transform="matrix(2 0 0 2 0 0)" fill="#65a50f"/></svg>
